<svg xmlns="http://www.w3.org/2000/svg" stroke-linejoin="round" stroke-linecap="round" stroke="currentColor" fill="none" viewBox="0 0 24 24" width="24" height="24" aria-label="Running">
  <path d="M14 17l1.4 5c.6 1 2.6 1 2.1-1L16 16l-4.3-3.3 1-2c.5 1 1.5 1.7 2 1.7s3-1.7 3-1.7c1.5-1 1-3-1-2l-2 1c-.7-2-1-3.4-2.7-3.7 0 0-1.4-1-2.4-.4a32 32 0 00-5 3.1c-1 .9.3 2.1 1.4 1.3l4-2.6-2.3 5.3c-.5 1 1 1.8 1 1.8z"/>
  <circle r="2.5" cy="4.2" cx="15.2"/>
  <path d="M11 15.6l-2.1 2.7c-.6.7-1.3.5-2.3.5H3.7c-2 0-2-2.1 0-2.1h3l2-2.2z"/>
</svg>