<svg xmlns="http://www.w3.org/2000/svg" height="24" width="24" fill="currentColor" viewBox="0 0 24 24" aria-label="Truck">
  <path d="M18.58 15.88a2.03 2.03 0 012.03 2 2.03 2.03 0 01-2.03 2.05 2.03 2.03 0 01-2.02-2.03 2.03 2.03 0 012-2.04zm0 3.11a1.11 1.11 0 100-2.22 1.11 1.11 0 000 2.22zM5.34 15.86A2.03 2.03 0 017.4 17.9a2.03 2.03 0 01-2.05 2 2.03 2.03 0 01-2-2c0-1.11.89-2.04 2-2.04zm0 3.16a1.11 1.11 0 100-2.23 1.11 1.11 0 000 2.23zM2.56 5.15h9.55c.75 0 1.4.62 1.4 1.4l-.04 2.8H14c0-.57.45-1.02 1.05-1.02h2.82a1.71 1.71 0 011.2.47l3.56 3.47a1.71 1.71 0 01.52 1.23v2.85c0 .57-.47 1.04-1.05 1.04h-.89a2.67 2.67 0 00-5.23 0H7.97a2.67 2.67 0 00-5.23 0h-.2a1.4 1.4 0 01-1.4-1.4V6.53a1.4 1.4 0 011.42-1.38zm12.5 6.37c0 .22.2.44.45.44h4a.45.45 0 00.3-.76l-1.63-1.64a.45.45 0 00-.3-.11h-2.39a.43.43 0 00-.44.44z"/>
</svg>
