<svg xmlns="http://www.w3.org/2000/svg" height="24" width="24" aria-label="Group" stroke-linejoin="round" stroke-width="1" stroke="currentColor" fill="none" viewBox="0 0 24 24">
  <circle r="3" cy="3.5" cx="12"/>
  <circle r="2.5" cy="6" cx="5.5"/>
  <circle r="2.5" cy="6" cx="18.5"/>
  <path d="M 10,23 V 19 C 9,19 8,18 8,17 V 10 C 8,9 9,8 10,8 h 4 c 1,0 2,1 2,2 v 7 c 0,1 -1,2 -2,2 v 4"/>
  <path d="M 4,23 V 19 C 3,19 2,18 2,17 v -5 c 0,-1 1,-2 2,-2 h 3"/>
  <path d="m 20,23 v -4 c 1,0 2,-1 2,-2 v -5 c 0,-1 -1,-2 -2,-2 h -3"/>
  <path d="M 7,23 V 19"/>
  <path d="M 17,23 V 19"/>
</svg>
