<svg
  xmlns="http://www.w3.org/2000/svg" viewBox="0 0 100 18.47" fill="currentColor" aria-label="Crazy Nutrition. Extreme results, naturally.">
  <path d="M92.9 12.7s-21.53-1.43-43.03-1.43c-21.4 0-42.77 1.44-42.77 1.44a.91.91 0 00-.92.9v3.96a.91.91 0 00.92.9s21.37-1.26 42.77-1.26c21.5 0 43.04 1.26 43.04 1.26.5 0 .91-.4.91-.9v-3.96c0-.5-.4-.9-.91-.9z" fill="#fbcd00"/>
  <path d="M13.4 16.42l.02.68-2.51.08-.11-3.58 2.45-.08.02.68-1.74.06.02.76 1.54-.05.02.68-1.54.05.02.77 1.81-.05zm3.7.58l-.9.02-.85-1.2-.66 1.25-.88.02 1.13-1.88-1.18-1.7.9-.02.81 1.17.64-1.21.86-.03-1.1 1.81L17.12 17zm1.82-2.95l.07 2.9-.7.02-.08-2.9-.84.02-.02-.68 2.43-.06.01.68zm3.8 1.28a1.03 1.03 0 01-.29.23l.87 1.3-.82.01-.79-1.12-.47.01.03 1.14-.7.01-.09-3.58 1.1-.02c.22 0 .43.02.6.07s.33.13.45.23.21.23.28.38a1.28 1.28 0 01.1.5 1.51 1.51 0 01-.05.43 1.14 1.14 0 01-.2.4zm-.5-.95a.57.57 0 00-.07-.18.43.43 0 00-.17-.15.59.59 0 00-.3-.06l-.5.01.02 1.08.5-.01c.1 0 .2-.02.27-.06a.46.46 0 00.16-.14.54.54 0 00.09-.17.59.59 0 00.02-.17.9.9 0 00-.02-.15zm4.18 1.72l.01.68-2.51.05-.08-3.58 2.46-.05.01.68-1.74.03.01.77 1.55-.03v.68l-1.53.03.01.77 1.8-.03zm3.73.62L30.1 15l-1.14 1.68-1.16-1.54.03 1.6-.69.02-.06-3.73 1.87 2.54L30.76 13h.01l.06 3.73h-.7zm4.14-.74l.01.68-2.51.03-.06-3.58 2.46-.03v.68l-1.74.02.01.76 1.55-.02v.68l-1.54.02.01.78 1.81-.03zm4.52-.9c-.07.08-.17.16-.29.22l.85 1.3-.82.01-.77-1.13h-.47l.01 1.14-.7.01-.05-3.58 1.1-.01c.23 0 .43.02.6.08s.33.13.45.24.21.23.28.38.1.3.1.5c0 .14-.03.29-.07.43a1.13 1.13 0 01-.21.4zm-.47-.96l-.08-.19c-.04-.07-.09-.11-.16-.15s-.17-.06-.3-.06h-.5v1.08h.5a.6.6 0 00.27-.06c.07-.03.13-.08.17-.13s.07-.12.09-.18a.6.6 0 00.02-.17c0-.04 0-.08-.02-.14zm4.13 1.78v.68l-2.51.02-.03-3.58 2.45-.02v.68l-1.74.01v.77l1.55-.01v.68h-1.54l.01.78 1.8-.01zm2.65-2.04a2.68 2.68 0 00-.42-.19 1.19 1.19 0 00-.4-.07.62.62 0 00-.36.1c-.1.06-.13.15-.13.28 0 .08.03.16.1.22s.15.13.26.18l.33.14a2.79 2.79 0 01.3.13c.1.06.2.12.29.2s.14.18.2.3.07.26.07.43a.96.96 0 01-.14.5 1.03 1.03 0 01-.42.39c-.18.1-.4.14-.67.15-.14 0-.27-.02-.42-.04a2.14 2.14 0 01-.81-.34l.31-.55a1.72 1.72 0 00.28.16 1.66 1.66 0 00.3.1c.1.03.2.04.28.04a.95.95 0 00.25-.03.47.47 0 00.22-.13.33.33 0 00.08-.24c0-.07-.02-.14-.07-.2s-.11-.1-.19-.16a1.55 1.55 0 00-.26-.12l-.34-.15a1.76 1.76 0 01-.33-.2.91.91 0 01-.25-.3.91.91 0 01-.1-.43c0-.2.04-.38.13-.54s.23-.27.4-.36.36-.14.58-.15c.3 0 .53.03.7.1s.35.15.5.24l-.27.54zm3.57 2.09a1.36 1.36 0 01-.53.47 1.57 1.57 0 01-.74.18c-.26 0-.5-.06-.73-.17s-.4-.27-.52-.48-.2-.43-.2-.7V13h.7v2.25c0 .11.04.22.11.33s.16.18.27.25a.72.72 0 00.37.1c.15 0 .28-.04.4-.1a.77.77 0 00.27-.26.59.59 0 00.1-.32v-2.26h.7v2.27c0 .26-.07.5-.2.7zm3.44-.07v.68h-2.4v-3.58h.71v2.9h1.7zm2.55-2.22h-.88v2.9h-.71v-2.9h-.83v-.68h2.42zm2.6.2c-.13-.07-.27-.13-.41-.18s-.28-.08-.4-.08c-.15 0-.28.03-.36.1s-.14.15-.14.27a.31.31 0 00.1.23.96.96 0 00.26.18l.33.14a2.71 2.71 0 01.31.14c.1.05.2.12.27.2a.88.88 0 01.2.3 1.13 1.13 0 01-.08.94 1.03 1.03 0 01-.41.37c-.18.1-.4.14-.68.14-.13 0-.27-.01-.41-.04a2.19 2.19 0 01-.42-.13 2.12 2.12 0 01-.4-.22l.32-.54a1.74 1.74 0 00.28.16c.1.05.2.08.3.1s.19.05.27.05.17-.01.26-.04a.47.47 0 00.21-.12.33.33 0 00.1-.24c0-.07-.03-.14-.08-.2s-.1-.1-.2-.16a1.55 1.55 0 00-.26-.12l-.34-.15a1.75 1.75 0 01-.33-.2c-.1-.08-.18-.18-.25-.3s-.09-.27-.09-.44c0-.2.05-.39.14-.54a.99.99 0 01.4-.36 1.37 1.37 0 01.58-.15 2 2 0 011.2.36l-.28.54zm1.15 2.8l-.21.52h-.55l.2-.5.2-.5h.6l-.23.5zm5.62-3.6l-.04 3.72-2.51-2.29v2.12h-.72l.03-3.73h.03l2.49 2.32v-2.15h.72zm2.94 3.6l-.27-.7-1.2-.01-.3.7-.69-.01 1.67-3.7h.04l1.57 3.74-.82-.01zm-.5-1.3l-.33-.87-.38.87h.71zm3.77-1.54l-.88-.02-.04 2.9h-.7l.03-2.9-.84-.02.01-.68 2.43.04-.01.68zm3.49 1.65c0 .26-.07.49-.2.69a1.36 1.36 0 01-.54.47 1.57 1.57 0 01-.74.16c-.27-.01-.51-.07-.73-.19s-.39-.28-.51-.48-.2-.44-.19-.7l.04-2.27h.7l-.03 2.26a.58.58 0 00.1.33c.06.1.15.2.26.26s.24.1.37.1a.77.77 0 00.4-.09c.1-.06.2-.14.27-.25a.59.59 0 00.1-.32l.04-2.26.7.02-.04 2.27zm3.07-.17c-.08.09-.18.16-.3.22l.82 1.33-.83-.02-.73-1.16h-.47l-.02 1.13-.71-.01.07-3.58 1.1.02a1.96 1.96 0 01.6.1c.17.05.32.14.43.25s.2.23.27.38.08.32.08.5a1.51 1.51 0 01-.08.44 1.13 1.13 0 01-.22.4zm-.45-.97a.56.56 0 00-.07-.19.43.43 0 00-.16-.16.59.59 0 00-.29-.06l-.5-.01-.03 1.08h.5c.11 0 .2 0 .28-.04a.45.45 0 00.17-.14.56.56 0 00.12-.33c0-.04 0-.1-.02-.15zm3.6 2.58l-.26-.71-1.2-.03-.3.7-.7-.02 1.7-3.68h.04l1.53 3.75-.82-.02zm-.48-1.31l-.32-.88-.39.86zm4.23.72l-.01.68-2.4-.06.1-3.58.7.02-.07 2.9 1.69.04zm3.13.08l-.02.68-2.4-.06.1-3.58.71.02-.08 2.9 1.7.04zm3.22-2.8l-1.42 2.42-.04 1.12-.7-.02.03-1.12-1.25-2.5.88.03.77 1.67.86-1.63.87.03zM4.95 2.49l-.25-.97-.2-.06a3.6 3.6 0 00-.98-.13c-.57-.02-1 .17-1.3.58s-.46 1.04-.46 1.89c0 .81.16 1.41.47 1.79s.76.56 1.34.55c.3-.01.61-.07.91-.18s.56-.23.78-.35l.32-.21.58.88a5.05 5.05 0 01-1.42.89c-.4.17-.86.26-1.36.28-1.08.04-1.9-.23-2.5-.85S0 5.06 0 3.85c0-.82.15-1.53.44-2.11S1.14.72 1.68.44 2.85.03 3.57.06c.38.02.76.07 1.12.16l.94.27.4.15L6 2.5l-1.04-.02zM12.91 6l.72.22V7l-1.96.06-.9-1.71-.31-.56a.64.64 0 00-.27-.23c-.1-.05-.24-.07-.43-.07H9.4v1.54l.76.27v.8l-3.2.1v-.83l.79-.31V1.52l-.8-.32V.37L9.4.43l.8.03c.88.03 1.57.22 2.04.55s.72.8.72 1.42c0 .41-.1.76-.32 1.05s-.5.51-.88.68a2.67 2.67 0 01.44.6L12.92 6zm-1.88-4.14c-.2-.17-.45-.27-.77-.27l-.87-.03V3.5h.6c.42 0 .74-.08.98-.25s.35-.4.35-.71c0-.27-.1-.49-.29-.67zm7.33 5v-.73l.8-.25-.26-.63-2.36.03-.26.64.83.23v.75l-3.2.08v-.77l.78-.26L17.02.73l1.7.03 2.29 5.1.74.22v.72l-3.38.08zm-.6-4.6l-.84 2.07h1.63l-.8-2.07zm6.64 3.48l2.43-.02.23-.82h1.02v1.77l-5.88.11v-.88L26 1.93l-2.24-.03-.26.74-1-.01V.87l5.63.13v.91l-3.7 3.84zm10.41-3.72L32.9 4.7v1.02l.8.23v.66l-3.25.04v-.67l.8-.25V4.7l-1.96-2.74-.69-.23v-.68l3.02.02v.7l-.55.17 1.07 1.7 1.12-1.67-.58-.18v-.66h2.88v.7zm10.68.1V6.5l-1.78.01-2.85-3.41v2.56l.83.22v.64l-3.09.03V5.9l.8-.24V2.1l-.8-.23V1.2l2.56-.01 2.87 3.49V2.12l-.77-.23v-.64l3.03-.02v.67l-.8.22zm8.45 0v2.24c0 .75-.24 1.3-.7 1.67s-1.26.55-2.37.55c-1.06 0-1.82-.17-2.29-.5s-.7-.88-.7-1.6V2.12l-.79-.23v-.63l3.27-.04v.67l-.83.23v2.35c0 .43.1.74.3.92s.57.27 1.1.27c.36 0 .64-.04.84-.14s.34-.23.41-.42.12-.43.12-.75V2.12l-.84-.22v-.64l3.28-.04v.67zm6.56.68l-.26-.72-1.02.01v3.56l1.02.23v.65l-3.68-.03v-.64l1.01-.22V2.1h-1.01l-.27.72h-.98v-1.6l6.18-.05V2.8zm6.84 1.87l.71 1.08.73.2v.67l-1.98-.02-.89-1.46a3.98 3.98 0 00-.32-.47.63.63 0 00-.26-.19c-.1-.03-.25-.05-.44-.05h-.37v1.25l.76.24v.66l-3.21-.04V5.9l.8-.22v-3.6l-.8-.23V1.2l2.45-.07.8-.01c.89-.02 1.57.1 2.05.36s.72.66.72 1.2a1.34 1.34 0 01-.32.9c-.21.25-.5.44-.88.58a2.29 2.29 0 01.44.51zm-1.17-2.43c-.2-.14-.45-.2-.78-.2h-.87v1.58h.6c.42 0 .75-.08.98-.22s.35-.35.35-.6c0-.23-.1-.41-.28-.56zm6.49 3.76v.69l-3.25-.06v-.67l.8-.23V1.99l-.8-.23v-.67l3.25-.11v.73l-.8.26v3.78l.8.26zm5.8-3.35l-.26-.8-1.01.02v3.94l1.01.27v.72l-3.67-.08v-.7l1.01-.23V1.9l-1 .02-.27.78-.99.01V.96L79.46.8v1.84l-.98.01zm4.87 3.51v.76l-3.24-.08v-.73l.8-.25V1.8l-.8-.24V.83l3.24-.14v.8l-.8.28v4.12zm7.5-.61c-.29.54-.7.94-1.24 1.22s-1.16.41-1.86.39c-1.06-.03-1.87-.34-2.44-.9s-.85-1.37-.85-2.42c0-.68.14-1.27.42-1.77s.69-.9 1.22-1.19 1.15-.45 1.86-.47c1.06-.04 1.89.21 2.47.8s.88 1.4.88 2.48a3.8 3.8 0 01-.45 1.87zM89.1 2.07c-.26-.35-.66-.51-1.2-.5-.56.02-.97.2-1.24.54s-.4.9-.4 1.69c0 .75.12 1.3.36 1.66s.64.55 1.17.56c.56 0 .98-.16 1.27-.52s.43-.94.43-1.76c0-.76-.13-1.32-.4-1.67zm10.1-.77v6.13l-1.76-.07-2.84-4.6v3.36l.83.32v.85l-3.08-.1v-.83l.8-.27v-4.6l-.8-.27V.4L94.9.24l2.85 4.63V1.35l-.77-.29V.2L100 0v.95l-.79.35z"/>
</svg>