<svg xmlns="http://www.w3.org/2000/svg" fill="currentColor" viewBox="0 0 24 24" aria-label="CrazyBulk">
   <path d="M20 4l-7.4.4V6l1.4.3v8l-1.4.7v1.3l6.4.3c4 .4 5.7-5.4 1.3-6.6 2.7-.6 3.3-5.3-.3-6zm-1.4 2.2c1 0 2 2.2-.3 3h-1.6v-3H18.6zm-2 4.8h2c1.7 0 2.1 3.3 0 3.4l-1.9-.1V11z"/>
   <path d="M11.2 8V5a13 13 0 00-5-1C3.3 4 1 6 1 11c.3 2.3.4 4.7 4 5.7 2.7.2 4.7-.7 6.5-2l-1-1.7C6.6 16 4 14 4 10.6c.3-4.6 2-5 5-4L9.5 8z"/>
   <path d="M1.3 18a57.8 57.8 0 0121.7.3v1.4c0 .2-.1.3-.3.3a57.8 57.8 0 00-21.4 0c-.2 0-.3-.1-.3-.3v-1.4c0-.2.1-.3.3-.3z" fill="#fdd20e"/>
</svg>